#!OML:ASF H:\MichaelJackson\Top Level 1\Subject 1\Session 1\male.ASF
:FULLY-SPECIFIED
:DEGREES
1
root 15.2502 16.7188 -31.5316 12.159 -10.8699 -1.77544
lowerback -2.83043 -1.18454 -2.85621
upperback -0.105859 -1.4965 0.583483
thorax 1.56679 -0.770554 2.13723
lowerneck -10.0854 -1.58263 -1.32726
upperneck 10.4093 -2.3579 3.43387
head 4.83469 -0.991387 1.11249
rclavicle -7.95139e-015 1.82882e-014
rhumerus -35.6215 2.27604 -90.8212
rradius 39.1498
rwrist 11.4937
rhand -25.6411 -23.6889
rfingers 7.12502
rthumb 0.892373 -53.6668
lclavicle -7.95139e-015 1.82882e-014
lhumerus -47.2464 -19.4329 100.019
lradius 60.7749
lwrist 18.4964
lhand -4.76881 17.4768
lfingers 7.12502
lthumb 21.0155 46.3581
rfemur -20.6071 0.512304 11.1473
rtibia 34.1702
rfoot -28.7887 14.2618
rtoes 72.2384
lfemur -19.2771 2.18983 -15.3879
ltibia 31.3627
lfoot -36.6673 23.1289
ltoes 38.8642
2
root 15.1695 16.7178 -31.5635 12.4148 -11.1433 -1.76728
lowerback -2.93097 -1.2637 -2.92808
upperback -0.199929 -1.59721 0.544157
thorax 1.5333 -0.819644 2.13164
lowerneck -10.0497 -1.4504 -1.29278
upperneck 10.0542 -2.181 3.49149
head 4.71513 -0.903366 1.13782
rclavicle 3.01159e-014 1.98785e-015
rhumerus -35.9344 2.44252 -91.1457
rradius 39.6892
rwrist 11.4565
rhand -25.7153 -23.1019
rfingers 7.12502
rthumb 0.820686 -53.0801
lclavicle 3.01159e-014 1.98785e-015
lhumerus -46.8054 -19.186 99.5587
lradius 59.2936
lwrist 18.2828
lhand -4.84486 18.4956
lfingers 7.12502
lthumb 20.9425 47.385
rfemur -20.7715 0.595672 11.5307
rtibia 33.8429
rfoot -30.4066 12.4837
rtoes 71.9476
lfemur -19.5226 1.99168 -15.0893
ltibia 31.3137
lfoot -36.7799 23.3497
ltoes 39.1739
3
root 15.0848 16.7139 -31.5925 12.5485 -11.3195 -1.76602
lowerback -2.95781 -1.35577 -3.00571
upperback -0.251312 -1.71676 0.511831
thorax 1.50393 -0.878738 2.13658
lowerneck -10.0671 -1.3406 -1.23386
upperneck 9.7636 -2.03627 3.52141
head 4.62469 -0.830834 1.14768
rclavicle 2.96189e-014 -6.75868e-015
rhumerus -36.2176 2.60549 -91.4586
rradius 40.1679
rwrist 11.3945
rhand -25.957 -23.153
rfingers 7.12502
rthumb 0.58724 -53.132
lclavicle 2.96189e-014 -6.75868e-015
lhumerus -46.4586 -18.9844 99.1264
lradius 57.9089
lwrist 18.0495
lhand -5.30604 18.3327
lfingers 7.12502
lthumb 20.4993 47.2705
rfemur -20.7205 1.21194 11.9091
rtibia 33.5346
rfoot -32.6283 9.99835
rtoes 71.2577
lfemur -19.6275 1.8213 -14.7514
ltibia 31.2642
lfoot -36.7582 23.3356
ltoes 39.8355
4
root 14.9996 16.7112 -31.6251 12.8206 -11.6115 -1.76507
lowerback -3.0696 -1.44732 -3.04215
upperback -0.357251 -1.83476 0.463268
thorax 1.46435 -0.935927 2.10044
lowerneck -9.99933 -1.20559 -1.30737
upperneck 9.4309 -1.84885 3.65364
head 4.50837 -0.737351 1.21375
rclavicle 5.11871e-014 7.15625e-015
rhumerus -36.5419 2.80158 -91.8138
rradius 40.655
rwrist 11.3705
rhand -26.1068 -22.7696
rfingers 7.12502
rthumb 0.442614 -52.7489
lclavicle 5.11871e-014 7.15625e-015
lhumerus -46.1256 -18.6537 98.6214
lradius 56.5912
lwrist 17.8962
lhand -5.5185 18.7898
lfingers 7.12502
lthumb 20.2952 47.7495
rfemur -20.9466 1.18135 12.2995
rtibia 33.2172
rfoot -33.5145 7.81905
rtoes 70.7218
lfemur -19.9033 1.72949 -14.4298
ltibia 31.2274
lfoot -36.8257 23.708
ltoes 39.6101
5
root 14.9086 16.7078 -31.6514 12.9383 -11.9073 -1.67144
lowerback -3.14466 -1.47758 -3.2155
upperback -0.409368 -1.86616 0.377882
thorax 1.45741 -0.951621 2.10723
lowerneck -9.97879 -1.10095 -1.23889
upperneck 9.18967 -1.71593 3.70144
head 4.42738 -0.669304 1.22638
rclavicle -7.45443e-015 3.18055e-015
rhumerus -36.7532 2.79696 -92.0492
rradius 41.0569
rwrist 10.842
rhand -25.7495 -22.2697
rfingers 7.12502
rthumb 0.787673 -52.248
lclavicle -7.45443e-015 3.18055e-015
lhumerus -45.8977 -18.4947 98.1885
lradius 55.5019
lwrist 17.5743
lhand -7.16383 17.2971
lfingers 7.12502
lthumb 18.7133 46.4169
rfemur -20.9347 2.30357 12.4045
rtibia 32.9339
rfoot -34.7799 5.87671
rtoes 70.072
lfemur -19.9835 1.82528 -14.2138
ltibia 31.178
lfoot -36.7614 23.955
ltoes 39.1349
6
root 14.8202 16.7016 -31.6807 13.0975 -12.1847 -1.62377
lowerback -3.21287 -1.5345 -3.32975
upperback -0.477044 -1.93583 0.313334
thorax 1.43186 -0.985643 2.10083
lowerneck -9.93965 -0.984613 -1.20947
upperneck 8.91407 -1.56231 3.76692
head 4.33277 -0.59205 1.252
rclavicle 1.32192e-014 1.27222e-014
rhumerus -37.025 2.95368 -92.3765
rradius 41.4721
rwrist 10.6562
rhand -25.7895 -22.0794
rfingers 7.12502
rthumb 0.749098 -52.0579
lclavicle 1.32192e-014 1.27222e-014
lhumerus -45.6316 -18.2683 97.7399
lradius 54.3257
lwrist 17.2975
lhand -7.71242 17.4676
lfingers 7.12502
lthumb 18.1855 46.6375
rfemur -20.9825 3.1374 12.6132
rtibia 32.6619
rfoot -35.9497 3.93665
rtoes 69.3475
lfemur -20.124 1.84952 -13.9396
ltibia 31.1492
lfoot -36.7597 24.1304
ltoes 39.0659
7
root 14.7307 16.6944 -31.709 13.2225 -12.4821 -1.57087
lowerback -3.26714 -1.57859 -3.44861
upperback -0.533813 -1.98844 0.243198
thorax 1.40868 -1.01127 2.09221
lowerneck -9.88849 -0.869625 -1.17368
upperneck 8.64916 -1.41055 3.82311
head 4.23945 -0.516157 1.27334
rclavicle 5.19822e-014 -7.95139e-016
rhumerus -37.2853 3.13308 -92.7145
rradius 41.8466
rwrist 10.4707
rhand -25.8542 -22.0013
rfingers 7.12502
rthumb 0.686516 -51.9799
lclavicle 5.19822e-014 -7.95139e-016
lhumerus -45.3944 -18.0357 97.2961
lradius 53.2076
lwrist 16.9775
lhand -8.16443 17.862
lfingers 7.12502
lthumb 17.7506 47.0718
rfemur -21.0129 4.11771 12.7808
rtibia 32.4435
rfoot -37.0194 2.16248
rtoes 68.6012
lfemur -20.2079 1.91286 -13.6736
ltibia 31.0996
lfoot -36.746 24.3168
ltoes 38.9605
8
root 14.6406 16.6869 -31.7362 13.3138 -12.796 -1.51833
lowerback -3.30434 -1.61247 -3.56469
upperback -0.578527 -2.0279 0.170236
thorax 1.38737 -1.03045 2.08001
lowerneck -9.85094 -0.754218 -1.10775
upperneck 8.41368 -1.2593 3.8421
head 4.15704 -0.44127 1.27803
rclavicle 4.90998e-014 -1.27222e-014
rhumerus -37.5256 3.3413 -93.0631
rradius 42.1748
rwrist 10.2791
rhand -25.9265 -21.9916
rfingers 7.12502
rthumb 0.616746 -51.9705
lclavicle 4.90998e-014 -1.27222e-014
lhumerus -45.1762 -17.7787 96.8518
lradius 52.1449
lwrist 16.5898
lhand -8.45918 18.6062
lfingers 7.12502
lthumb 17.467 47.8415
rfemur -21.0347 5.15146 12.9248
rtibia 32.2859
rfoot -37.9467 0.540315
rtoes 67.8476
lfemur -20.2403 1.99869 -13.409
ltibia 31.0396
lfoot -36.7385 24.5206
ltoes 38.8109
9
root 14.5505 16.6797 -31.7617 13.3583 -13.1406 -1.47874
lowerback -3.31846 -1.62906 -3.66283
upperback -0.603745 -2.04549 0.0976451
thorax 1.37121 -1.03893 2.05952
lowerneck -9.86206 -0.6422 -1.0511
upperneck 7.88964 -1.09347 3.73626
head 4.43783 -0.378273 1.38393
rclavicle -5.31749e-014 2.38542e-015
rhumerus -37.7321 3.57746 -93.4134
rradius 42.4456
rwrist 10.0744
rhand -25.9975 -22.064
rfingers 7.12502
rthumb 0.548167 -52.0431
lclavicle -5.31749e-014 2.38542e-015
lhumerus -44.9692 -17.4917 96.4113
lradius 51.1204
lwrist 16.145
lhand -8.62865 19.5668
lfingers 7.12502
lthumb 17.3039 48.8164
rfemur -21.0308 6.16004 13.0689
rtibia 32.1814
rfoot -38.6802 -1.03236
rtoes 67.038
lfemur -20.1932 2.09565 -13.1406
ltibia 30.9653
lfoot -36.7371 24.7757
ltoes 38.6192
10
root 14.4608 16.6731 -31.7855 13.357 -13.4994 -1.45754
lowerback -3.30598 -1.63495 -3.73547
upperback -0.608753 -2.05053 0.0311004
thorax 1.35949 -1.04138 2.03201
lowerneck -9.83866 -0.523965 -0.929082
upperneck 7.70676 -0.939751 3.67296
head 4.36022 -0.303715 1.34854
rclavicle -7.65321e-015 2.62396e-014
rhumerus -37.9049 3.85175 -93.7642
rradius 42.6557
rwrist 9.8944
rhand -26.0836 -22.2555
rfingers 7.12502
rthumb 0.465033 -52.2348
lclavicle -7.65321e-015 2.62396e-014
lhumerus -44.7611 -17.1537 95.9717
lradius 50.113
lwrist 15.624
lhand -8.60192 20.7595
lfingers 7.12502
lthumb 17.3296 50.0069
rfemur -21.0006 7.01574 13.2395
rtibia 32.1251
rfoot -39.1301 -2.5909
rtoes 66.1385
lfemur -20.0746 2.18464 -12.8596
ltibia 30.884
lfoot -36.7431 25.0853
ltoes 38.406
